inDegrees=yes
name=ik_S50_A01_T03
DataType=double
version=3
OpenSimVersion=4.3-2021-08-27-4bc7ad9
endheader
time	pelvis_tilt	pelvis_list	pelvis_rotation	pelvis_tx	pelvis_ty	pelvis_tz	hip_flexion_r	hip_adduction_r	hip_rotation_r	knee_angle_r	knee_angle_r_beta	ankle_angle_r	subtalar_angle_r	mtp_angle_r	hip_flexion_l	hip_adduction_l	hip_rotation_l	knee_angle_l	knee_angle_l_beta	ankle_angle_l	subtalar_angle_l	mtp_angle_l	lumbar_extension	lumbar_bending	lumbar_rotation	arm_flex_r	arm_add_r	arm_rot_r	elbow_flex_r	pro_sup_r	wrist_flex_r	wrist_dev_r	arm_flex_l	arm_add_l	arm_rot_l	elbow_flex_l	pro_sup_l	wrist_flex_l	wrist_dev_l
9.619999999999884	0.3018208630421964	8.640892613379412	87.76239776339447	0	0.9399999999999999	0	-11.24031829749939	2.198492335778274	-1.524882274531331	5.020791775068463	0.08762934753199522	0	0	0	12.05057108934512	-3.007938802614718	-11.37351578051035	-1.266121201131058	-0.02209798368904232	0	0	0	0	0	0	32.87852393349252	-32.87852393349252	4.467746220837575	77.5365683633551	85.53225402880568	0	0	32.87852393349252	-32.87852393349252	4.467746220837575	77.5365683633551	85.53225402870579	0	0
9.639999999999883	0.1087785457011808	8.385868246678733	87.39789577321542	0	0.9399999999999999	0	-11.0271033196345	1.901554785340872	-1.190422888684843	5.430673056976469	0.094783125443585	0	0	0	12.55811122058325	-3.251672602777295	-12.54522212335676	-1.113244033845585	-0.01942977376878865	0	0	0	0	0	0	32.88016585858403	-32.88016585858403	4.467890110349918	77.53859835585237	85.5321101393007	0	0	32.88016585858403	-32.88016585858403	4.467890110349918	77.53859835585237	85.53211013920084	0	0
9.659999999999883	-0.1101082990706344	8.287098714937532	87.3557431390464	0	0.9399999999999999	0	-11.71780628103417	1.885411760528611	-1.362975431689281	5.970519501898797	0.1042052233626658	0	0	0	12.99606583278985	-2.687970253402314	-12.38458723529294	0.5758027364497159	0.01004965359304071	0	0	0	0	0	0	32.88267411007707	-32.88267411007707	4.46811010984968	77.54170214685986	85.53189013981222	0	0	32.88267411007707	-32.88267411007707	4.46811010984968	77.54170214685986	85.5318901397124	0	0
9.679999999999882	-0.3742540396610144	8.302550550856544	87.58122905065663	0	0.9399999999999999	0	-12.47323892491693	1.908651609306274	-1.626001793793913	6.530663396476409	0.1139815786079892	0	0	0	13.35039998123072	-1.691247074857386	-12.34676797823481	2.88338977021003	0.05032464510848773	0	0	0	0	0	0	32.88668923060515	-32.88668923060515	4.468460760663007	77.54664875639767	85.53153948901677	0	0	32.88668923060515	-32.88668923060515	4.468460760663007	77.54664875639767	85.53153948891702	0	0
9.699999999999882	-0.4467736462625764	8.349023604810425	87.72728503589609	0	0.9399999999999999	0	-13.11412229015285	2.019374370582781	-1.82505105385329	7.366999792833055	0.128578402378677	0	0	0	13.32252189705112	-1.594046859875861	-12.2145831834163	2.915520136701598	0.05088542579363805	0	0	0	0	0	0	32.88924638867228	-32.88924638867228	4.468684323471944	77.5498026047984	85.53131592621924	0	0	32.88924638867228	-32.88924638867228	4.468684323471944	77.5498026047984	85.53131592611956	0	0
9.719999999999882	-0.51236608691029	8.369500132491783	87.92119742257614	0	0.9399999999999999	0	-13.59209650506304	1.942877345954263	-2.589309148747926	8.501428680445851	0.148377921597257	0	0	0	13.74175858984602	-1.42811918576814	-11.11083800913921	3.481051816860476	0.06075581563674596	0	0	0	0	0	0	32.89226804223847	-32.89226804223847	4.46894957370979	77.55354479987881	85.53105067599492	0	0	32.89226804223847	-32.89226804223847	4.46894957370979	77.55354479987881	85.5310506758953	0	0
9.739999999999881	-0.7011153907241455	7.580985041313244	87.67549884808135	0	0.9399999999999999	0	-13.0855588331689	1.640000128222647	-3.378988818395756	9.144223262911416	0.1595968034752633	0	0	0	14.13128708006451	-1.731499380104452	-9.081039051417159	4.772624283780113	0.08329800771259917	0	0	0	0	0	0	32.92981861568168	-32.92981861568168	4.471773255309583	77.59326301071923	85.52822699453603	0	0	32.92981861568168	-32.92981861568168	4.471773255309583	77.59326301071923	85.52822699443692	0	0
9.759999999999881	-1.214931553646985	7.983048997793706	87.79584012681239	0	0.9399999999999999	0	-13.50305756324317	0.8355819154051494	-4.751226375781184	11.10927762815489	0.1938934721294492	0	0	0	13.36993777892595	-1.601374150315374	-10.94326775514874	6.755345529757934	0.1179030216041565	0	0	0	0	0	0	32.93486084247787	-32.93486084247787	4.472212971558392	77.59946554095981	85.52778727830962	0	0	32.93486084247787	-32.93486084247787	4.472212971558392	77.59946554095981	85.52778727821064	0	0
9.77999999999988	-1.690299466044252	8.441206019998937	88.05739735884165	0	0.9399999999999999	0	-13.56462757650392	0.003541964510610901	-5.934108779994628	13.63845702541335	0.238035979985215	0	0	0	12.88043720400134	-1.111068029719163	-10.93887230723186	8.07373151091484	0.1409131977874805	0	0	0	0	0	0	32.93772448700182	-32.93772448700182	4.472461899627557	77.60297665512779	85.5275383502531	0	0	32.93772448700182	-32.93772448700182	4.472461899627557	77.60297665512779	85.52753835015419	0	0
9.79999999999988	-2.036379770685498	8.852722553483991	88.5351053284259	0	0.9399999999999999	0	-13.04222918142804	-0.9610410395762146	-7.26459639147351	16.79727538829057	0.2931677608898794	0	0	0	12.70690970746183	-0.8731233130921523	-11.18708210026838	9.522736770052935	0.1662031104381539	0	0	0	0	0	0	32.94354273483557	-32.94354273483557	4.472966846774388	77.61009861500821	85.52703340313192	0	0	32.94354273483557	-32.94354273483557	4.472966846774388	77.61009861500821	85.5270334030331	0	0
